<svg width="26" height="26" viewBox="0 0 26 26" fill="none" xmlns="http://www.w3.org/2000/svg">
<path d="M13 13.07C14.1387 13.07 15.2519 12.7323 16.1987 12.0997C17.1455 11.467 17.8835 10.5678 18.3192 9.5158C18.755 8.46376 18.869 7.30612 18.6469 6.18927C18.4247 5.07242 17.8764 4.04654 17.0712 3.24134C16.266 2.43613 15.2401 1.88779 14.1232 1.66563C13.0064 1.44348 11.8487 1.55749 10.7967 1.99327C9.74465 2.42904 8.84546 3.16699 8.21281 4.11381C7.58017 5.06062 7.2425 6.17378 7.2425 7.3125C7.2425 8.83949 7.84909 10.3039 8.92883 11.3837C10.0086 12.4634 11.473 13.07 13 13.07ZM13 3.32C13.7896 3.32 14.5616 3.55416 15.2181 3.99286C15.8747 4.43156 16.3864 5.0551 16.6886 5.78464C16.9908 6.51417 17.0698 7.31693 16.9158 8.0914C16.7617 8.86587 16.3815 9.57726 15.8231 10.1356C15.2648 10.694 14.5534 11.0742 13.7789 11.2283C13.0044 11.3823 12.2017 11.3033 11.4721 11.0011C10.7426 10.6989 10.1191 10.1872 9.68036 9.53062C9.24166 8.87405 9.0075 8.10214 9.0075 7.3125C9.0075 6.25363 9.42814 5.23812 10.1769 4.48938C10.9256 3.74064 11.9411 3.32 13 3.32Z" fill="#FFBE00" stroke="#FFBE00" stroke-width="0.14"/>
<path d="M20.9976 22.68C20.784 20.94 19.9463 19.3356 18.6386 18.1654C17.3115 16.9778 15.5934 16.3209 13.8125 16.32C13.8125 16.32 13.8125 16.32 13.8125 16.32M20.9976 22.68L13.8125 16.25L13.8125 16.32M20.9976 22.68H5.00244M20.9976 22.68H5.00244M13.8125 16.32H12.1875M13.8125 16.32H12.1875M12.1875 16.32C12.1875 16.32 12.1875 16.32 12.1875 16.32C10.4066 16.3209 8.68847 16.9778 7.36136 18.1654C6.0537 19.3356 5.21602 20.94 5.00244 22.68M12.1875 16.32L5.00244 22.68M13.8125 14.555H12.1875C9.79856 14.555 7.50747 15.504 5.81824 17.1932C4.129 18.8825 3.18 21.1736 3.18 23.5625C3.18 23.7966 3.27298 24.021 3.43848 24.1865C3.60398 24.352 3.82845 24.445 4.0625 24.445H21.9375C22.1716 24.445 22.396 24.352 22.5615 24.1865C22.727 24.021 22.82 23.7966 22.82 23.5625C22.82 21.1736 21.871 18.8825 20.1818 17.1932C18.4925 15.504 16.2014 14.555 13.8125 14.555Z" fill="#FFBE00" stroke="#FFBE00" stroke-width="0.14"/>
</svg>
